<svg width="1028" height="962" viewBox="0 0 1028 962" fill="none" xmlns="http://www.w3.org/2000/svg">
<rect y="3" width="971" height="902" fill="#0094C6"/>
<path d="M1017.5 106.981L1017.5 951.5L159.5 951.5" stroke="#ED6A5A" stroke-width="15"/>
<path d="M993.227 16.6444C987.925 16.6444 985.225 13.3471 982.842 10.4378C980.69 7.81056 978.99 5.73533 975.359 5.73533C971.727 5.73533 970.027 7.81056 967.875 10.4378C965.493 13.3471 962.792 16.6444 957.489 16.6444C952.187 16.6444 949.486 13.3471 947.103 10.4378C944.952 7.81056 943.253 5.73533 939.621 5.73533C935.989 5.73533 934.29 7.81056 932.138 10.4378C929.756 13.3471 927.055 16.6444 921.752 16.6444C916.451 16.6444 913.751 13.3471 911.368 10.4378C909.217 7.81056 907.518 5.73533 903.886 5.73533C900.255 5.73533 898.556 7.81056 896.404 10.4378C894.022 13.3471 891.321 16.6444 886.019 16.6444C880.716 16.6444 878.015 13.3471 875.632 10.4378C873.481 7.81056 871.782 5.73533 868.15 5.73533C866.963 5.73533 866 4.45157 866 2.86767C866 1.28424 866.963 0 868.15 0C873.452 0 876.153 3.29734 878.536 6.20658C880.687 8.83385 882.387 10.9091 886.019 10.9091C889.65 10.9091 891.349 8.83384 893.501 6.20706C895.884 3.29734 898.584 0 903.886 0C909.188 0 911.889 3.29782 914.271 6.20706C916.422 8.83432 918.121 10.9091 921.752 10.9091C925.384 10.9091 927.084 8.83384 929.235 6.20706C931.618 3.29734 934.318 0 939.621 0C944.923 0 947.624 3.29734 950.007 6.20706C952.158 8.83384 953.858 10.9091 957.489 10.9091C961.121 10.9091 962.821 8.83384 964.972 6.20706C967.355 3.29734 970.056 0 975.359 0C980.661 0 983.362 3.29734 985.745 6.20706C987.896 8.83384 989.596 10.9091 993.227 10.9091C996.86 10.9091 998.56 8.83385 1000.71 6.20658C1003.09 3.29734 1005.8 0 1011.1 0C1012.29 0 1013.25 1.28424 1013.25 2.86767C1013.25 4.45157 1012.29 5.73533 1011.1 5.73533C1007.47 5.73533 1005.77 7.81056 1003.61 10.4378C1001.23 13.3471 998.531 16.6444 993.227 16.6444Z" fill="#1C1C1C"/>
<path d="M993.227 41.2887C987.925 41.2887 985.225 37.9914 982.842 35.0822C980.69 32.4549 978.99 30.3797 975.359 30.3797C971.727 30.3797 970.027 32.4549 967.875 35.0822C965.493 37.9914 962.792 41.2887 957.489 41.2887C952.187 41.2887 949.486 37.9914 947.103 35.0822C944.952 32.4549 943.253 30.3797 939.621 30.3797C935.989 30.3797 934.29 32.4549 932.138 35.0822C929.756 37.9914 927.055 41.2887 921.752 41.2887C916.451 41.2887 913.751 37.9914 911.368 35.0822C909.217 32.4549 907.518 30.3797 903.886 30.3797C900.255 30.3797 898.556 32.4549 896.404 35.0822C894.022 37.9914 891.321 41.2887 886.019 41.2887C880.716 41.2887 878.015 37.9914 875.632 35.0822C873.481 32.4549 871.782 30.3797 868.15 30.3797C866.963 30.3797 866 29.0959 866 27.5121C866 25.9286 866.963 24.6444 868.15 24.6444C873.452 24.6444 876.153 27.9417 878.536 30.8509C880.687 33.4782 882.387 35.5534 886.019 35.5534C889.65 35.5534 891.349 33.4782 893.501 30.8514C895.884 27.9417 898.584 24.6444 903.886 24.6444C909.188 24.6444 911.889 27.9422 914.271 30.8514C916.422 33.4787 918.121 35.5534 921.752 35.5534C925.384 35.5534 927.084 33.4782 929.235 30.8514C931.618 27.9417 934.318 24.6444 939.621 24.6444C944.923 24.6444 947.624 27.9417 950.007 30.8514C952.158 33.4782 953.858 35.5534 957.489 35.5534C961.121 35.5534 962.821 33.4782 964.972 30.8514C967.355 27.9417 970.056 24.6444 975.359 24.6444C980.661 24.6444 983.362 27.9417 985.745 30.8514C987.896 33.4782 989.596 35.5534 993.227 35.5534C996.86 35.5534 998.56 33.4782 1000.71 30.8509C1003.09 27.9417 1005.8 24.6444 1011.1 24.6444C1012.29 24.6444 1013.25 25.9286 1013.25 27.5121C1013.25 29.0959 1012.29 30.3797 1011.1 30.3797C1007.47 30.3797 1005.77 32.4549 1003.61 35.0822C1001.23 37.9914 998.531 41.2887 993.227 41.2887Z" fill="#1C1C1C"/>
<path d="M993.227 65.933C987.925 65.933 985.225 62.6357 982.842 59.7264C980.69 57.0992 978.99 55.024 975.359 55.024C971.727 55.024 970.027 57.0992 967.875 59.726C965.493 62.6357 962.792 65.933 957.489 65.933C952.187 65.933 949.486 62.6357 947.103 59.726C944.952 57.0992 943.253 55.024 939.621 55.024C935.989 55.024 934.29 57.0992 932.138 59.726C929.756 62.6357 927.055 65.933 921.752 65.933C916.451 65.933 913.751 62.6357 911.368 59.726C909.217 57.0992 907.518 55.024 903.886 55.024C900.255 55.024 898.556 57.0992 896.404 59.726C894.022 62.6357 891.321 65.933 886.019 65.933C880.716 65.933 878.015 62.6357 875.632 59.726C873.481 57.0992 871.781 55.024 868.15 55.024C866.963 55.024 866 53.7398 866 52.1563C866 50.5724 866.963 49.2887 868.15 49.2887C873.452 49.2887 876.153 52.586 878.536 55.4952C880.687 58.1225 882.387 60.1977 886.019 60.1977C889.65 60.1977 891.349 58.1225 893.501 55.4952C895.884 52.586 898.584 49.2887 903.886 49.2887C909.188 49.2887 911.889 52.586 914.271 55.4957C916.422 58.1225 918.121 60.1977 921.752 60.1977C925.384 60.1977 927.084 58.1225 929.235 55.4952C931.618 52.586 934.318 49.2887 939.621 49.2887C944.923 49.2887 947.624 52.586 950.007 55.4952C952.158 58.1225 953.858 60.1977 957.489 60.1977C961.121 60.1977 962.821 58.1225 964.972 55.4952C967.355 52.586 970.056 49.2887 975.359 49.2887C980.661 49.2887 983.362 52.586 985.745 55.4952C987.896 58.1225 989.596 60.1977 993.227 60.1977C996.86 60.1977 998.56 58.1225 1000.71 55.4952C1003.09 52.586 1005.8 49.2887 1011.1 49.2887C1012.29 49.2887 1013.25 50.5724 1013.25 52.1563C1013.25 53.7398 1012.29 55.024 1011.1 55.024C1007.47 55.024 1005.77 57.0992 1003.61 59.7264C1001.23 62.6357 998.531 65.933 993.227 65.933Z" fill="#1C1C1C"/>
<path d="M993.227 90.5773C987.925 90.5773 985.225 87.28 982.842 84.3707C980.69 81.7435 978.99 79.6683 975.359 79.6683C971.727 79.6683 970.027 81.7435 967.875 84.3703C965.493 87.28 962.792 90.5773 957.489 90.5773C952.187 90.5773 949.486 87.28 947.103 84.3703C944.952 81.7435 943.253 79.6683 939.621 79.6683C935.989 79.6683 934.29 81.7435 932.138 84.3703C929.756 87.28 927.055 90.5773 921.752 90.5773C916.451 90.5773 913.751 87.28 911.368 84.3703C909.217 81.7435 907.518 79.6683 903.886 79.6683C900.255 79.6683 898.556 81.7435 896.404 84.3703C894.022 87.28 891.321 90.5773 886.019 90.5773C880.716 90.5773 878.015 87.28 875.632 84.3703C873.481 81.7435 871.781 79.6683 868.15 79.6683C866.963 79.6683 866 78.384 866 76.8006C866 75.2167 866.963 73.933 868.15 73.933C873.452 73.933 876.153 77.2303 878.536 80.1395C880.687 82.7668 882.387 84.842 886.019 84.842C889.65 84.842 891.349 82.7668 893.501 80.1395C895.884 77.2303 898.584 73.933 903.886 73.933C909.188 73.933 911.889 77.2303 914.271 80.14C916.422 82.7668 918.121 84.842 921.752 84.842C925.384 84.842 927.084 82.7668 929.235 80.1395C931.618 77.2303 934.318 73.933 939.621 73.933C944.923 73.933 947.624 77.2303 950.007 80.1395C952.158 82.7668 953.858 84.842 957.489 84.842C961.121 84.842 962.821 82.7668 964.972 80.1395C967.355 77.2303 970.056 73.933 975.359 73.933C980.661 73.933 983.362 77.2303 985.745 80.1395C987.896 82.7668 989.596 84.842 993.227 84.842C996.86 84.842 998.56 82.7668 1000.71 80.1395C1003.09 77.2303 1005.8 73.933 1011.1 73.933C1012.29 73.933 1013.25 75.2167 1013.25 76.8006C1013.25 78.384 1012.29 79.6683 1011.1 79.6683C1007.47 79.6683 1005.77 81.7435 1003.61 84.3707C1001.23 87.28 998.531 90.5773 993.227 90.5773Z" fill="#1C1C1C"/>
<path d="M993.227 115.222C987.925 115.222 985.225 111.924 982.842 109.015C980.69 106.388 978.99 104.313 975.359 104.313C971.727 104.313 970.027 106.388 967.875 109.015C965.493 111.924 962.792 115.222 957.489 115.222C952.187 115.222 949.486 111.924 947.103 109.015C944.952 106.388 943.253 104.313 939.621 104.313C935.989 104.313 934.29 106.388 932.138 109.015C929.756 111.924 927.055 115.222 921.752 115.222C916.451 115.222 913.751 111.924 911.368 109.015C909.217 106.388 907.518 104.313 903.886 104.313C900.255 104.313 898.556 106.388 896.404 109.015C894.022 111.924 891.321 115.222 886.019 115.222C880.716 115.222 878.015 111.924 875.632 109.015C873.481 106.388 871.781 104.313 868.15 104.313C866.963 104.313 866 103.028 866 101.445C866 99.8605 866.963 98.5773 868.15 98.5773C873.452 98.5773 876.153 101.875 878.536 104.784C880.687 107.411 882.387 109.486 886.019 109.486C889.65 109.486 891.349 107.411 893.501 104.784C895.884 101.875 898.584 98.5773 903.886 98.5773C909.188 98.5773 911.889 101.875 914.271 104.784C916.422 107.411 918.121 109.486 921.752 109.486C925.384 109.486 927.084 107.411 929.235 104.784C931.618 101.875 934.318 98.5773 939.621 98.5773C944.923 98.5773 947.624 101.875 950.007 104.784C952.158 107.411 953.858 109.486 957.489 109.486C961.121 109.486 962.821 107.411 964.972 104.784C967.355 101.875 970.056 98.5773 975.359 98.5773C980.661 98.5773 983.362 101.875 985.745 104.784C987.896 107.411 989.596 109.486 993.227 109.486C996.86 109.486 998.56 107.411 1000.71 104.784C1003.09 101.875 1005.8 98.5773 1011.1 98.5773C1012.29 98.5773 1013.25 99.8605 1013.25 101.445C1013.25 103.028 1012.29 104.313 1011.1 104.313C1007.47 104.313 1005.77 106.388 1003.61 109.015C1001.23 111.924 998.531 115.222 993.227 115.222Z" fill="#1C1C1C"/>
<path d="M83.2275 829.644C77.9253 829.644 75.2245 826.347 72.8416 823.438C70.6901 820.811 68.9904 818.735 65.3585 818.735C61.7266 818.735 60.027 820.811 57.8751 823.438C55.4925 826.347 52.7918 829.644 47.4893 829.644C42.1867 829.644 39.4863 826.347 37.1034 823.438C34.9519 820.811 33.2526 818.735 29.6207 818.735C25.9892 818.735 24.2898 820.811 22.1384 823.438C19.7558 826.347 17.0551 829.644 11.7525 829.644C6.45065 829.644 3.75064 826.347 1.36808 823.438C-0.783043 820.811 -2.48237 818.735 -6.11355 818.735C-9.74509 818.735 -11.4444 820.811 -13.5959 823.438C-15.9785 826.347 -18.6792 829.644 -23.9814 829.644C-29.284 829.644 -31.9847 826.347 -34.3676 823.438C-36.5191 820.811 -38.2184 818.735 -41.8503 818.735C-43.0373 818.735 -44 817.452 -44 815.868C-44 814.284 -43.0373 813 -41.8503 813C-36.5481 813 -33.8474 816.297 -31.4645 819.207C-29.313 821.834 -27.6133 823.909 -23.9814 823.909C-20.3499 823.909 -18.6505 821.834 -16.499 819.207C-14.1165 816.297 -11.4158 813 -6.11355 813C-0.811707 813 1.88866 816.298 4.27123 819.207C6.42235 821.834 8.12132 823.909 11.7525 823.909C15.3844 823.909 17.0837 821.834 19.2352 819.207C21.6178 816.297 24.3185 813 29.6207 813C34.9233 813 37.6236 816.297 40.0066 819.207C42.158 821.834 43.8577 823.909 47.4893 823.909C51.1215 823.909 52.8208 821.834 54.9723 819.207C57.3553 816.297 60.056 813 65.3585 813C70.6611 813 73.3618 816.297 75.7448 819.207C77.8962 821.834 79.5956 823.909 83.2275 823.909C86.8601 823.909 88.5598 821.834 90.7119 819.207C93.0949 816.297 95.796 813 101.099 813C102.286 813 103.249 814.284 103.249 815.868C103.249 817.452 102.286 818.735 101.099 818.735C97.4663 818.735 95.7666 820.811 93.6144 823.438C91.2315 826.347 88.5307 829.644 83.2275 829.644Z" fill="#1C1C1C"/>
<path d="M83.2275 854.497C77.9253 854.497 75.2245 851.2 72.8416 848.291C70.6901 845.663 68.9904 843.588 65.3585 843.588C61.7266 843.588 60.027 845.663 57.8751 848.291C55.4925 851.2 52.7918 854.497 47.4893 854.497C42.1867 854.497 39.4863 851.2 37.1034 848.291C34.9519 845.663 33.2526 843.588 29.6207 843.588C25.9892 843.588 24.2898 845.663 22.1384 848.291C19.7558 851.2 17.0551 854.497 11.7525 854.497C6.45065 854.497 3.75064 851.2 1.36808 848.291C-0.783043 845.663 -2.48237 843.588 -6.11355 843.588C-9.74509 843.588 -11.4444 845.663 -13.5959 848.291C-15.9785 851.2 -18.6792 854.497 -23.9814 854.497C-29.284 854.497 -31.9847 851.2 -34.3676 848.291C-36.5191 845.663 -38.2184 843.588 -41.8503 843.588C-43.0373 843.588 -44 842.304 -44 840.72C-44 839.137 -43.0373 837.853 -41.8503 837.853C-36.5481 837.853 -33.8474 841.15 -31.4645 844.059C-29.313 846.687 -27.6133 848.762 -23.9814 848.762C-20.3499 848.762 -18.6505 846.687 -16.499 844.06C-14.1165 841.15 -11.4158 837.853 -6.11355 837.853C-0.811707 837.853 1.88866 841.151 4.27123 844.06C6.42235 846.687 8.12132 848.762 11.7525 848.762C15.3844 848.762 17.0837 846.687 19.2352 844.06C21.6178 841.15 24.3185 837.853 29.6207 837.853C34.9233 837.853 37.6236 841.15 40.0066 844.06C42.158 846.687 43.8577 848.762 47.4893 848.762C51.1215 848.762 52.8208 846.687 54.9723 844.06C57.3553 841.15 60.056 837.853 65.3585 837.853C70.6611 837.853 73.3618 841.15 75.7448 844.06C77.8962 846.687 79.5956 848.762 83.2275 848.762C86.8601 848.762 88.5598 846.687 90.7119 844.059C93.0949 841.15 95.796 837.853 101.099 837.853C102.286 837.853 103.249 839.137 103.249 840.72C103.249 842.304 102.286 843.588 101.099 843.588C97.4663 843.588 95.7666 845.663 93.6144 848.291C91.2315 851.2 88.5307 854.497 83.2275 854.497Z" fill="#1C1C1C"/>
<path d="M83.2275 879.351C77.9253 879.351 75.2245 876.053 72.8416 873.144C70.6901 870.517 68.9904 868.442 65.3585 868.442C61.7266 868.442 60.027 870.517 57.8751 873.144C55.4925 876.053 52.7918 879.351 47.4893 879.351C42.1867 879.351 39.4863 876.053 37.1034 873.144C34.9519 870.517 33.2526 868.442 29.6207 868.442C25.9892 868.442 24.2898 870.517 22.1384 873.144C19.7558 876.053 17.0551 879.351 11.7525 879.351C6.45065 879.351 3.75064 876.053 1.36808 873.144C-0.783043 870.517 -2.48237 868.442 -6.11355 868.442C-9.74509 868.442 -11.4444 870.517 -13.5959 873.144C-15.9785 876.053 -18.6792 879.351 -23.9814 879.351C-29.284 879.351 -31.9847 876.053 -34.3676 873.144C-36.5191 870.517 -38.2188 868.442 -41.8503 868.442C-43.0373 868.442 -44 867.157 -44 865.574C-44 863.99 -43.0373 862.706 -41.8503 862.706C-36.5481 862.706 -33.8474 866.004 -31.4645 868.913C-29.313 871.54 -27.6133 873.615 -23.9814 873.615C-20.3499 873.615 -18.6505 871.54 -16.499 868.913C-14.1165 866.004 -11.4158 862.706 -6.11355 862.706C-0.811707 862.706 1.88866 866.004 4.27123 868.913C6.42235 871.54 8.12132 873.615 11.7525 873.615C15.3844 873.615 17.0837 871.54 19.2352 868.913C21.6178 866.004 24.3185 862.706 29.6207 862.706C34.9233 862.706 37.6236 866.004 40.0066 868.913C42.158 871.54 43.8577 873.615 47.4893 873.615C51.1215 873.615 52.8208 871.54 54.9723 868.913C57.3553 866.004 60.056 862.706 65.3585 862.706C70.6611 862.706 73.3618 866.004 75.7448 868.913C77.8962 871.54 79.5956 873.615 83.2275 873.615C86.8601 873.615 88.5598 871.54 90.7119 868.913C93.0949 866.004 95.796 862.706 101.099 862.706C102.286 862.706 103.249 863.99 103.249 865.574C103.249 867.157 102.286 868.442 101.099 868.442C97.4663 868.442 95.7666 870.517 93.6144 873.144C91.2315 876.053 88.5307 879.351 83.2275 879.351Z" fill="#1C1C1C"/>
<path d="M83.2275 904.203C77.9253 904.203 75.2245 900.906 72.8416 897.997C70.6901 895.37 68.9904 893.295 65.3585 893.295C61.7266 893.295 60.027 895.37 57.8751 897.996C55.4925 900.906 52.7918 904.203 47.4893 904.203C42.1867 904.203 39.4863 900.906 37.1034 897.996C34.9519 895.37 33.2526 893.295 29.6207 893.295C25.9892 893.295 24.2898 895.37 22.1384 897.996C19.7558 900.906 17.0551 904.203 11.7525 904.203C6.45065 904.203 3.75064 900.906 1.36808 897.996C-0.783043 895.37 -2.48237 893.295 -6.11355 893.295C-9.74509 893.295 -11.4444 895.37 -13.5959 897.996C-15.9785 900.906 -18.6792 904.203 -23.9814 904.203C-29.284 904.203 -31.9847 900.906 -34.3676 897.996C-36.5191 895.37 -38.2188 893.295 -41.8503 893.295C-43.0373 893.295 -44 892.01 -44 890.427C-44 888.843 -43.0373 887.559 -41.8503 887.559C-36.5481 887.559 -33.8474 890.857 -31.4645 893.766C-29.313 896.393 -27.6133 898.468 -23.9814 898.468C-20.3499 898.468 -18.6505 896.393 -16.499 893.766C-14.1165 890.857 -11.4158 887.559 -6.11355 887.559C-0.811707 887.559 1.88866 890.857 4.27123 893.766C6.42235 896.393 8.12132 898.468 11.7525 898.468C15.3844 898.468 17.0837 896.393 19.2352 893.766C21.6178 890.857 24.3185 887.559 29.6207 887.559C34.9233 887.559 37.6236 890.857 40.0066 893.766C42.158 896.393 43.8577 898.468 47.4893 898.468C51.1215 898.468 52.8208 896.393 54.9723 893.766C57.3553 890.857 60.056 887.559 65.3585 887.559C70.6611 887.559 73.3618 890.857 75.7448 893.766C77.8962 896.393 79.5956 898.468 83.2275 898.468C86.8601 898.468 88.5598 896.393 90.7119 893.766C93.0949 890.857 95.796 887.559 101.099 887.559C102.286 887.559 103.249 888.843 103.249 890.427C103.249 892.01 102.286 893.295 101.099 893.295C97.4663 893.295 95.7666 895.37 93.6144 897.997C91.2315 900.906 88.5307 904.203 83.2275 904.203Z" fill="#1C1C1C"/>
<path d="M83.2275 929.057C77.9253 929.057 75.2245 925.759 72.8416 922.85C70.6901 920.223 68.9904 918.148 65.3585 918.148C61.7266 918.148 60.027 920.223 57.8751 922.85C55.4925 925.759 52.7918 929.057 47.4893 929.057C42.1867 929.057 39.4863 925.759 37.1034 922.85C34.9519 920.223 33.2526 918.148 29.6207 918.148C25.9892 918.148 24.2898 920.223 22.1384 922.85C19.7558 925.759 17.0551 929.057 11.7525 929.057C6.45065 929.057 3.75064 925.759 1.36808 922.85C-0.783043 920.223 -2.48237 918.148 -6.11355 918.148C-9.74509 918.148 -11.4444 920.223 -13.5959 922.85C-15.9785 925.759 -18.6792 929.057 -23.9814 929.057C-29.284 929.057 -31.9847 925.759 -34.3676 922.85C-36.5191 920.223 -38.2188 918.148 -41.8503 918.148C-43.0373 918.148 -44 916.863 -44 915.28C-44 913.696 -43.0373 912.412 -41.8503 912.412C-36.5481 912.412 -33.8474 915.71 -31.4645 918.619C-29.313 921.246 -27.6133 923.321 -23.9814 923.321C-20.3499 923.321 -18.6505 921.246 -16.499 918.619C-14.1165 915.71 -11.4158 912.412 -6.11355 912.412C-0.811707 912.412 1.88866 915.71 4.27123 918.619C6.42235 921.246 8.12132 923.321 11.7525 923.321C15.3844 923.321 17.0837 921.246 19.2352 918.619C21.6178 915.71 24.3185 912.412 29.6207 912.412C34.9233 912.412 37.6236 915.71 40.0066 918.619C42.158 921.246 43.8577 923.321 47.4893 923.321C51.1215 923.321 52.8208 921.246 54.9723 918.619C57.3553 915.71 60.056 912.412 65.3585 912.412C70.6611 912.412 73.3618 915.71 75.7448 918.619C77.8962 921.246 79.5956 923.321 83.2275 923.321C86.8601 923.321 88.5598 921.246 90.7119 918.619C93.0949 915.71 95.796 912.412 101.099 912.412C102.286 912.412 103.249 913.696 103.249 915.28C103.249 916.863 102.286 918.148 101.099 918.148C97.4663 918.148 95.7666 920.223 93.6144 922.85C91.2315 925.759 88.5307 929.057 83.2275 929.057Z" fill="#1C1C1C"/>
</svg>
