<svg width="35" height="27" viewBox="0 0 35 27" fill="none" xmlns="http://www.w3.org/2000/svg">
<path d="M30.7273 0H4.27995C1.9191 0 0 1.9191 0 4.27995V22.3557C0 24.7165 1.9191 26.6356 4.27995 26.6356H30.72C33.0809 26.6356 35 24.7165 35 22.3557V4.28719C35.0072 1.92634 33.0881 0 30.7273 0ZM33.0519 22.3557C33.0519 23.6375 32.0091 24.6803 30.7273 24.6803H4.27995C2.99814 24.6803 1.95531 23.6375 1.95531 22.3557V4.28719C1.95531 3.00538 2.99814 1.96255 4.27995 1.96255H30.72C32.0018 1.96255 33.0447 3.00538 33.0447 4.28719V22.3557H33.0519Z" fill="#FFF8F0"/>
<path d="M22.0733 13.0933L30.6332 5.41688C31.0315 5.05478 31.0677 4.43922 30.7056 4.03368C30.3435 3.63538 29.7279 3.59917 29.3224 3.96126L17.5181 14.5561L15.2152 12.4994C15.208 12.4922 15.2007 12.4849 15.2007 12.4777C15.15 12.427 15.0993 12.3836 15.0414 12.3401L5.67041 3.95402C5.26486 3.59192 4.6493 3.62813 4.28721 4.03368C3.92512 4.43922 3.96132 5.05478 4.36687 5.41688L13.0282 13.1584L4.40308 21.2331C4.01202 21.6025 3.99029 22.218 4.35963 22.6163C4.55516 22.8191 4.81587 22.9277 5.07657 22.9277C5.31556 22.9277 5.55454 22.8408 5.74283 22.667L14.4983 14.4765L16.8736 16.5983C17.0619 16.7649 17.2936 16.8446 17.5254 16.8446C17.7571 16.8446 17.9961 16.7577 18.1771 16.5911L20.6176 14.404L29.3224 22.6743C29.5107 22.8553 29.7569 22.9422 29.9959 22.9422C30.2566 22.9422 30.51 22.8408 30.7056 22.6381C31.0749 22.247 31.0604 21.6242 30.6694 21.2549L22.0733 13.0933Z" fill="#FFF8F0"/>
</svg>
