<svg width="21" height="35" viewBox="0 0 21 35" fill="none" xmlns="http://www.w3.org/2000/svg">
<path d="M17.968 0H2.364C1.064 0 0 1.063 0 2.364V32.635C0 33.936 1.064 35 2.364 35H17.968C19.268 35 20.332 33.938 20.332 32.636V2.364C20.332 1.063 19.268 0 17.968 0ZM7.67 1.704H12.662C12.82 1.704 12.948 1.832 12.948 1.991C12.948 2.149 12.82 2.277 12.662 2.277H7.67C7.512 2.277 7.384 2.149 7.384 1.991C7.384 1.832 7.512 1.704 7.67 1.704ZM10.166 33.818C9.513 33.818 8.984 33.289 8.984 32.635C8.984 31.981 9.513 31.453 10.166 31.453C10.819 31.453 11.348 31.981 11.348 32.635C11.348 33.289 10.819 33.818 10.166 33.818ZM18.687 30.625H1.645V3.749H18.687V30.625Z" fill="#FFF8F0"/>
</svg>
