<svg width="52" height="52" viewBox="0 0 52 52" fill="none" xmlns="http://www.w3.org/2000/svg">
<rect width="52" height="52" fill="#FFF8F0"/>
<path d="M14.772 28.2241V36H13.5269V18.1533H17.7749C19.9884 18.1533 21.6242 18.5643 22.6821 19.3862C23.7401 20.2 24.269 21.4289 24.269 23.0728C24.269 24.269 23.9517 25.2782 23.3169 26.1001C22.6903 26.922 21.734 27.512 20.4482 27.8701L25.2944 36H23.8052L19.2031 28.2241H14.772ZM14.772 27.1499H18.1777C19.6833 27.1499 20.8511 26.8162 21.6812 26.1489C22.5112 25.4735 22.9263 24.4806 22.9263 23.1704C22.9263 21.8114 22.5194 20.8226 21.7056 20.2041C20.8918 19.5856 19.5653 19.2764 17.7261 19.2764H14.772V27.1499ZM36.9888 29.7012H29.7378L27.2476 36H25.8682L33.0459 18.0801H33.8394L40.8706 36H39.4668L36.9888 29.7012ZM30.1895 28.5781H36.5737L34.1445 22.145C33.9411 21.6405 33.6969 20.9406 33.4121 20.0454C33.1924 20.8267 32.9523 21.5347 32.6919 22.1694L30.1895 28.5781Z" fill="#4D5057"/>
</svg>
