<svg width="49" height="49" viewBox="0 0 49 49" fill="none" xmlns="http://www.w3.org/2000/svg">
<path d="M24.5 0C10.9638 0 0 11.2485 0 25.1217C0 36.2232 7.01925 45.6375 16.7519 48.9567C17.9769 49.1931 18.426 48.4155 18.426 47.7487C18.426 47.1522 18.4056 45.5715 18.3954 43.4773C11.5803 44.992 10.143 40.107 10.143 40.107C9.02825 37.2075 7.41738 36.432 7.41738 36.432C5.19808 34.8747 7.58888 34.9067 7.58888 34.9067C10.0491 35.0813 11.3415 37.4951 11.3415 37.4951C13.526 41.3362 17.0765 40.2263 18.4771 39.585C18.6976 37.9595 19.3285 36.8538 20.0288 36.2254C14.5877 35.5969 8.869 33.4367 8.869 23.8115C8.869 21.0697 9.81838 18.8285 11.3905 17.0709C11.1148 16.4361 10.288 13.8817 11.6048 10.4219C11.6048 10.4219 13.6567 9.74872 18.3423 12.9976C20.3023 12.4394 22.3848 12.1625 24.4673 12.1497C26.5498 12.1625 28.6323 12.4394 30.5923 12.9976C35.2473 9.74872 37.2992 10.4219 37.2992 10.4219C38.6161 13.8817 37.7892 16.4361 37.5442 17.0709C39.1061 18.8285 40.0555 21.0697 40.0555 23.8115C40.0555 33.4622 34.3286 35.5863 28.8773 36.2041C29.7348 36.9582 30.5311 38.4985 30.5311 40.8526C30.5311 44.2144 30.5005 46.9157 30.5005 47.7317C30.5005 48.39 30.9292 49.1761 32.1848 48.9247C41.9869 45.6268 49 36.2062 49 25.1217C49 11.2485 38.0301 0 24.5 0V0Z" fill="white"/>
</svg>
