<svg width="49" height="49" viewBox="0 0 49 49" fill="none" xmlns="http://www.w3.org/2000/svg">
<path d="M2.68362 18.8612L15.4735 32.1708V18.8612L10.0194 0.700972C9.73986 -0.233657 8.41588 -0.233657 8.13772 0.700972L2.68362 18.8612Z" fill="#A5A5A5"/>
<path d="M46.3164 18.8612L33.5265 32.1708V18.8612L38.9806 0.700972C39.2601 -0.233657 40.5841 -0.233657 40.8623 0.700972L46.3164 18.8612Z" fill="#A5A5A5"/>
<path d="M24.5 49L4.04712 18.8612H44.9529L24.5 49Z" fill="white"/>
<path d="M24.5 49L15.4735 18.8612H2.68362L8.13772 35.1284L24.5 49Z" fill="#EBEBEB"/>
<path d="M24.5 49L33.5265 18.8612H46.3164L40.8623 35.1284L24.5 49Z" fill="#EBEBEB"/>
<path d="M2.6836 18.8612L0.0929084 27.9708C-0.152526 28.8064 0.0929084 29.7454 0.774671 30.2778L24.5273 49L2.6836 18.8612Z" fill="#DCDCDC"/>
<path d="M46.3164 18.8612L48.9071 27.9708C49.1525 28.8064 48.9071 29.7454 48.2253 30.2778L24.5 49L46.3164 18.8612Z" fill="#DCDCDC"/>
</svg>
