<svg width="1077" height="781" viewBox="0 0 1077 781" fill="none" xmlns="http://www.w3.org/2000/svg">
<path d="M1077 801H0V77L913.109 248.474L1077 801Z" fill="#1C1C1C"/>
<path d="M374.991 738.834H139.755C139.755 738.834 134.986 668.838 163.199 668.043C191.411 667.248 188.233 699.064 223.597 655.316C258.962 611.569 301.877 613.955 307.44 639.806C313.003 665.657 296.711 686.337 326.513 679.974C356.315 673.611 399.23 690.314 374.991 738.834Z" fill="#D0CDE1"/>
<path d="M253.402 738.85L252.608 738.818C254.46 692.734 264.103 663.124 271.867 646.4C280.296 628.24 288.419 620.889 288.5 620.817L289.028 621.411C288.948 621.482 280.92 628.761 272.558 646.797C264.837 663.451 255.247 692.939 253.402 738.85Z" fill="#F2F2F2"/>
<path d="M338.54 738.945L337.777 738.723C343.693 719.192 354.357 701.434 368.815 687.041L369.348 687.63C354.998 701.923 344.413 719.554 338.54 738.945Z" fill="#F2F2F2"/>
<path d="M176.806 738.889L176.018 738.78C178.583 721.502 175.869 703.851 168.233 688.145C165.101 681.556 160.955 675.501 155.946 670.2L156.496 669.626C161.57 674.992 165.771 681.122 168.946 687.792C176.652 703.642 179.392 721.453 176.806 738.889Z" fill="#F2F2F2"/>
<path d="M411.989 739.205H99.7657L99.6936 738.146C99.5141 735.513 95.5312 673.397 115.64 651.234C117.635 648.893 120.098 646.996 122.87 645.664C125.642 644.333 128.662 643.598 131.735 643.505C144.842 643.132 153.08 648.046 159.724 651.99C172.246 659.425 180.519 664.338 210.598 627.129C243.182 586.82 278.34 578.148 298.551 582.97C311.609 586.087 320.609 594.894 323.244 607.134C325.738 618.725 324.944 629.615 324.305 638.366C323.622 647.729 323.083 655.124 326.925 658.476C330.132 661.272 336.534 661.527 347.07 659.276C368.502 654.7 398.405 658.615 413.415 678.025C421.491 688.468 427.852 707.45 412.302 738.577L411.989 739.205ZM101.896 736.934H410.584C422.171 713.404 422.533 693.527 411.621 679.416C397.852 661.61 368.964 656.923 347.544 661.497C336.096 663.942 329.275 663.538 325.434 660.188C320.736 656.091 321.312 648.196 322.042 638.2C322.67 629.594 323.451 618.884 321.026 607.612C318.583 596.261 310.199 588.085 298.025 585.18C278.458 580.508 244.283 589.07 212.362 628.558C181.05 667.291 171.618 661.693 158.566 653.944C151.84 649.951 144.204 645.423 131.799 645.775C129.032 645.864 126.315 646.531 123.821 647.735C121.327 648.938 119.113 650.65 117.32 652.761C99.2471 672.68 101.454 728.536 101.896 736.934Z" fill="#0094C6"/>
<path d="M380.123 330.729H157.888V333.228H380.123V330.729Z" fill="#0094C6"/>
<path d="M380.123 348.223H157.888V350.722H380.123V348.223Z" fill="#0094C6"/>
<path d="M380.123 365.718H157.888V368.217H380.123V365.718Z" fill="#0094C6"/>
<path d="M380.123 250.472H157.888V252.972H380.123V250.472Z" fill="#0094C6"/>
<path d="M380.123 267.967H157.888V270.466H380.123V267.967Z" fill="#0094C6"/>
<path d="M380.123 285.461H157.888V287.96H380.123V285.461Z" fill="#0094C6"/>
<path d="M212.394 187.697H162.407V228.347H212.394V187.697Z" fill="#D0CDE1"/>
<path d="M205.104 222.093H153.035V179.359H205.104V222.093ZM155.118 220.008H203.021V181.444H155.118V220.008Z" fill="#0094C6"/>
<path d="M112.9 211.095C118.382 211.095 122.825 206.648 122.825 201.162C122.825 195.675 118.382 191.228 112.9 191.228C107.418 191.228 102.975 195.675 102.975 201.162C102.975 206.648 107.418 211.095 112.9 211.095Z" fill="#D0CDE1"/>
<path d="M665.474 616.329H443.239V618.828H665.474V616.329Z" fill="#0094C6"/>
<path d="M665.474 633.823H443.239V636.322H665.474V633.823Z" fill="#0094C6"/>
<path d="M665.474 651.318H443.239V653.817H665.474V651.318Z" fill="#0094C6"/>
<path d="M665.474 536.072H443.239V538.571H665.474V536.072Z" fill="#0094C6"/>
<path d="M665.474 553.567H443.239V556.066H665.474V553.567Z" fill="#0094C6"/>
<path d="M665.474 571.061H443.239V573.56H665.474V571.061Z" fill="#0094C6"/>
<path d="M497.745 473.297H447.759V513.947H497.745V473.297Z" fill="#D0CDE1"/>
<path d="M490.456 507.693H438.386V464.959H490.456V507.693ZM440.469 505.608H488.373V467.044H440.469V505.608Z" fill="#0094C6"/>
<path d="M398.252 496.695C403.733 496.695 408.177 492.248 408.177 486.761C408.177 481.275 403.733 476.827 398.252 476.827C392.77 476.827 388.326 481.275 388.326 486.761C388.326 492.248 392.77 496.695 398.252 496.695Z" fill="#D0CDE1"/>
<path d="M542.276 461.413C537.389 461.413 532.613 462.864 528.55 465.581C524.487 468.298 521.32 472.16 519.45 476.678C517.581 481.196 517.091 486.168 518.045 490.965C518.998 495.761 521.351 500.167 524.806 503.625C528.261 507.083 532.663 509.439 537.456 510.393C542.248 511.347 547.216 510.857 551.73 508.985C556.244 507.114 560.103 503.945 562.818 499.878C565.532 495.812 566.981 491.031 566.981 486.141C566.981 482.893 566.342 479.678 565.101 476.678C563.859 473.678 562.039 470.952 559.745 468.656C557.451 466.36 554.727 464.538 551.73 463.296C548.733 462.053 545.52 461.413 542.276 461.413ZM538.014 497.206L527.387 486.57L530.368 483.586L538.024 491.249L554.184 475.075L557.164 478.059L538.014 497.206Z" fill="#0094C6"/>
<path d="M254.443 175.814C249.556 175.814 244.78 177.264 240.717 179.981C236.654 182.698 233.487 186.56 231.618 191.078C229.748 195.596 229.258 200.568 230.212 205.365C231.165 210.161 233.518 214.567 236.973 218.026C240.428 221.484 244.83 223.839 249.623 224.793C254.415 225.747 259.383 225.257 263.897 223.386C268.412 221.514 272.27 218.345 274.985 214.278C277.699 210.212 279.148 205.431 279.148 200.541C279.148 197.293 278.509 194.078 277.268 191.078C276.026 188.078 274.206 185.352 271.912 183.056C269.618 180.76 266.895 178.938 263.897 177.696C260.9 176.453 257.687 175.814 254.443 175.814ZM250.181 211.606L239.554 200.97L242.535 197.986L250.191 205.649L266.351 189.475L269.332 192.459L250.181 211.606Z" fill="#0094C6"/>
<path d="M870.978 82.395L894.916 141.372L909.647 181.918L948.317 124.784C948.317 124.784 924.379 100.825 924.379 69.4939L870.978 82.395Z" fill="#A0616A"/>
<path d="M799.163 709.021L788.114 764.311L819.418 790.113L832.308 709.021H799.163Z" fill="#A0616A"/>
<path d="M979.622 696.12L975.938 762.468L1007.24 756.939L1010.92 699.805L979.622 696.12Z" fill="#A0616A"/>
<path d="M897.678 112.805C921.069 112.805 940.031 93.8265 940.031 70.4154C940.031 47.0044 921.069 28.026 897.678 28.026C874.288 28.026 855.326 47.0044 855.326 70.4154C855.326 93.8265 874.288 112.805 897.678 112.805Z" fill="#A0616A"/>
<path d="M994.353 246.424C994.353 246.424 1009.08 375.435 998.035 375.435C986.987 375.435 933.586 364.377 922.537 355.162C911.489 345.946 876.502 349.632 876.502 349.632C876.502 349.632 850.722 369.906 837.832 358.848C824.942 347.789 847.039 218.778 847.039 218.778L841.515 139.529C841.515 139.529 865.453 132.156 876.502 143.215L879.872 139.215L889.447 127.899L904.123 141.372L904.289 141.998L909.647 161.645C909.647 161.645 917.492 134.958 923.035 129.392C923.413 128.994 923.871 128.68 924.379 128.471C929.903 126.628 948.317 110.04 948.317 110.04L961.465 124.84L963.049 126.628L1009.08 139.529L994.353 246.424Z" fill="#D0CDE1"/>
<path d="M848.881 351.476L845.198 369.906C845.198 369.906 824.942 373.592 830.467 412.295L815.735 548.678L791.797 718.236L835.991 723.765L920.696 473.115L972.256 710.864H1018.29L1009.08 445.469C1009.08 445.469 1016.45 390.179 990.67 364.377C964.89 338.574 870.978 336.731 848.881 351.476Z" fill="#2F2E41"/>
<path d="M806.528 767.997C806.528 767.997 810.211 753.253 801.004 751.41C791.797 749.567 784.431 756.939 782.59 760.625C780.748 764.311 738.396 815.916 738.396 815.916C738.396 815.916 707.092 852.776 753.127 850.933C799.163 849.09 801.004 826.974 801.004 826.974C801.004 826.974 801.004 823.288 810.211 823.288C819.418 823.288 843.357 810.387 841.515 801.172C839.674 791.957 824.188 760.105 824.188 760.105C824.188 760.105 813.894 786.428 806.528 767.997Z" fill="#2F2E41"/>
<path d="M1010.93 745.881C1010.93 745.881 994.353 734.823 985.145 742.195C975.938 749.567 972.256 751.41 972.256 751.41L972.107 752.526C970.469 766.169 971.966 780.005 976.484 792.98C977.575 796.257 975.428 798.616 975.938 801.172C978.7 814.994 981.463 832.503 1009.08 825.131C1036.71 817.759 1010.93 745.881 1010.93 745.881Z" fill="#2F2E41"/>
<path d="M998.035 392.022C998.035 392.022 966.731 425.196 985.145 436.254C1003.56 447.312 1014.61 401.237 1014.61 401.237L998.035 392.022Z" fill="#A0616A"/>
<path d="M904.289 141.998L898.599 157.959L879.871 139.215L889.447 127.899L904.123 141.372L904.289 141.998Z" fill="#2F2E41"/>
<path d="M961.465 124.84L940.031 147.822L923.034 129.392C923.413 128.994 923.871 128.679 924.379 128.47C929.903 126.627 948.317 110.04 948.317 110.04L961.465 124.84Z" fill="#2F2E41"/>
<path d="M985.146 145.058L1009.08 139.529C1009.08 139.529 1034.86 159.802 1044.07 229.836C1053.28 299.871 1018.29 412.295 1018.29 412.295L990.67 395.708C990.67 395.708 1005.4 307.243 1003.56 294.342C1001.72 281.441 990.67 231.679 990.67 231.679L985.146 145.058Z" fill="#D0CDE1"/>
<path d="M864.55 24.8814L856.846 22.0776C856.846 22.0776 872.954 5.95539 895.365 7.35738L889.062 1.04862C889.062 1.04862 904.47 -4.55907 918.477 10.1612C925.84 17.8993 934.36 26.9949 939.671 37.2412H947.921L944.478 44.134L956.53 51.0268L944.159 49.7887C945.331 55.7395 944.928 61.8936 942.989 67.6402L940.188 75.3508C940.188 75.3508 928.982 52.9199 928.982 50.1161V57.1257C928.982 57.1257 921.278 50.817 921.278 46.6112L917.076 51.518L914.975 43.8074L889.062 51.518L893.264 45.2094L877.156 47.3122L883.459 39.6016C883.459 39.6016 868.216 50.1423 864.55 56.4248C860.648 63.1104 854.745 73.9488 854.745 73.9488L850.543 66.9392C850.543 66.9392 844.239 35.3958 864.55 24.8814Z" fill="#2F2E41"/>
<path d="M793.779 46.7477C793.779 46.7477 815.499 6.62813 794.862 0.685025C774.225 -5.25808 775.395 42.1113 775.395 42.1113L793.779 46.7477Z" fill="#A0616A"/>
<path d="M850.722 143.215L841.515 139.529L792.718 133.078L795.48 45.5347L773.383 25.2615C773.383 25.2615 712.616 135.843 775.224 176.389C837.832 216.935 858.088 224.307 858.088 224.307L850.722 143.215Z" fill="#D0CDE1"/>
</svg>
