<svg width="49" height="49" viewBox="0 0 49 49" fill="none" xmlns="http://www.w3.org/2000/svg">
<g clip-path="url(#clip0)">
<path d="M48.952 14.4061C48.8372 11.8026 48.4162 10.0127 47.8131 8.46166C47.1909 6.81532 46.2337 5.34135 44.9796 4.11604C43.7543 2.87165 42.2706 1.90471 40.6433 1.29224C39.0833 0.689122 37.3028 0.268096 34.6992 0.153304C32.0762 0.0287913 31.2435 0 24.5908 0C17.9382 0 17.1055 0.0287913 14.4922 0.143583C11.8886 0.258374 10.0987 0.679774 8.54809 1.28252C6.90137 1.90471 5.42741 2.86193 4.2021 4.11604C2.95771 5.34135 1.99115 6.82504 1.3783 8.45231C0.775182 10.0127 0.354155 11.7929 0.239364 14.3964C0.114851 17.0194 0.0860596 17.8521 0.0860596 24.5048C0.0860596 31.1575 0.114851 31.9902 0.229642 34.6034C0.344434 37.207 0.765834 38.9969 1.36896 40.5479C1.99115 42.1943 2.95771 43.6682 4.2021 44.8935C5.42741 46.1379 6.9111 47.1049 8.53837 47.7173C10.0987 48.3204 11.8789 48.7415 14.4828 48.8563C17.0957 48.9714 17.9288 48.9999 24.5815 48.9999C31.2341 48.9999 32.0669 48.9714 34.6801 48.8563C37.2837 48.7415 39.0736 48.3204 40.6242 47.7173C43.9173 46.4442 46.5208 43.8406 47.794 40.5479C48.3968 38.9876 48.8182 37.207 48.933 34.6034C49.0477 31.9902 49.0765 31.1575 49.0765 24.5048C49.0765 17.8521 49.0668 17.0194 48.952 14.4061ZM44.5395 34.412C44.434 36.805 44.0321 38.0973 43.697 38.9588C42.8737 41.0935 41.1795 42.7877 39.0448 43.611C38.1833 43.946 36.8817 44.348 34.498 44.4531C31.9135 44.5682 31.1384 44.5966 24.6006 44.5966C18.0627 44.5966 17.2778 44.5682 14.7027 44.4531C12.3097 44.348 11.0174 43.946 10.1559 43.611C9.09363 43.2184 8.12669 42.5962 7.34184 41.7826C6.52821 40.988 5.90602 40.0308 5.51341 38.9685C5.17838 38.107 4.77643 36.805 4.67136 34.4217C4.55619 31.8372 4.52777 31.0617 4.52777 24.5239C4.52777 17.986 4.55619 17.2011 4.67136 14.6264C4.77643 12.2333 5.17838 10.9411 5.51341 10.0796C5.90602 9.01692 6.52821 8.05035 7.35157 7.26514C8.14576 6.4515 9.10297 5.82931 10.1656 5.43707C11.0271 5.10205 12.3291 4.70009 14.7124 4.59465C17.2969 4.47986 18.0724 4.45106 24.6099 4.45106C31.1575 4.45106 31.9326 4.47986 34.5078 4.59465C36.9008 4.70009 38.193 5.10205 39.0545 5.43707C40.1168 5.82931 41.0838 6.4515 41.8686 7.26514C42.6822 8.0597 43.3044 9.01692 43.697 10.0796C44.0321 10.9411 44.434 12.2427 44.5395 14.6264C44.6543 17.2109 44.6831 17.986 44.6831 24.5239C44.6831 31.0617 44.6543 31.8275 44.5395 34.412Z" fill="#DADADA"/>
<path d="M24.5909 11.9174C17.6417 11.9174 12.0034 17.5552 12.0034 24.5048C12.0034 31.4544 17.6417 37.0922 24.5909 37.0922C31.5404 37.0922 37.1783 31.4544 37.1783 24.5048C37.1783 17.5552 31.5404 11.9174 24.5909 11.9174ZM24.5909 32.6699C20.0826 32.6699 16.4257 29.0134 16.4257 24.5048C16.4257 19.9961 20.0826 16.3396 24.5909 16.3396C29.0995 16.3396 32.756 19.9961 32.756 24.5048C32.756 29.0134 29.0995 32.6699 24.5909 32.6699Z" fill="#DADADA"/>
<path d="M40.6149 11.4197C40.6149 13.0425 39.2991 14.3583 37.676 14.3583C36.0532 14.3583 34.7374 13.0425 34.7374 11.4197C34.7374 9.79653 36.0532 8.4811 37.676 8.4811C39.2991 8.4811 40.6149 9.79653 40.6149 11.4197Z" fill="#DADADA"/>
</g>
<defs>
<clipPath id="clip0">
<rect width="49" height="49" fill="white"/>
</clipPath>
</defs>
</svg>
