<svg width="49" height="49" viewBox="0 0 49 49" fill="none" xmlns="http://www.w3.org/2000/svg">
<path d="M7.0782 2.48819C3.70971 2.48819 1.50732 4.70011 1.50732 7.60737C1.50732 10.4504 3.6441 12.7254 6.94894 12.7254H7.01287C10.4472 12.7254 12.5846 10.4504 12.5846 7.60737C12.5204 4.70011 10.4472 2.48819 7.0782 2.48819Z" fill="#DADADA"/>
<path d="M2.08939 16.7705H11.9369V46.3971H2.08939V16.7705Z" fill="#DADADA"/>
<path d="M36.1079 16.0751C30.7956 16.0751 27.2333 21.067 27.2333 21.067V16.7705H17.3855V46.3972H27.2328V29.8525C27.2328 28.9667 27.297 28.0824 27.5572 27.449C28.2691 25.6804 29.8891 23.8481 32.6096 23.8481C36.173 23.8481 37.5981 26.565 37.5981 30.5478V46.3972H47.4448V29.4097C47.4448 20.3097 42.5864 16.0751 36.1079 16.0751Z" fill="#DADADA"/>
</svg>
