<svg width="35" height="35" viewBox="0 0 35 35" fill="none" xmlns="http://www.w3.org/2000/svg">
<path d="M21.6015 17.7734C21.2242 17.7734 20.9179 18.0797 20.9179 18.457C20.9179 18.8343 21.2242 19.1406 21.6015 19.1406C21.9788 19.1406 22.2851 18.8343 22.2851 18.457C22.2851 18.0797 21.9788 17.7734 21.6015 17.7734Z" fill="#FFF8F0"/>
<path d="M6.98409 25.2783L0.148156 33.8915C-0.0149984 34.0969 -0.0459738 34.3775 0.0680475 34.6136C0.182069 34.8499 0.421326 35 0.683548 35H34.3163C34.5786 35 34.8178 34.8499 34.9318 34.6136C35.0461 34.3775 35.0149 34.0969 34.8517 33.8915L28.0158 25.2783C27.8863 25.1148 27.689 25.0195 27.4804 25.0195H21.4923L26.6045 17.0012C27.8038 15.2033 28.4374 13.1066 28.4374 10.9375C28.4374 4.90665 23.531 0 17.4999 0C11.4688 0 6.56245 4.90665 6.56245 10.9375C6.56245 13.1066 7.19611 15.203 8.39533 17.0012L13.5076 25.0195H7.51948C7.31093 25.0195 7.11386 25.1148 6.98409 25.2783ZM4.43183 30.6933H8.56516L6.2324 33.6328H2.0988L4.43183 30.6933ZM14.3794 26.3867L16.2535 29.3261H11.3957L13.7287 26.3867H14.3794ZM20.6207 26.3867H21.2715L23.6042 29.3261H18.7467L20.6207 26.3867ZM24.6894 30.6933L27.0222 33.6328H7.9777L10.3107 30.6933H24.6894ZM28.7677 33.6328L26.4347 30.6933H30.5683L32.9011 33.6328H28.7677ZM29.4831 29.3261H25.3498L23.0168 26.3867H27.1504L29.4831 29.3261ZM9.53661 16.2482C8.48532 14.6743 7.92964 12.8379 7.92964 10.9375C7.92964 5.66047 12.2229 1.36719 17.4999 1.36719C22.777 1.36719 27.0702 5.66047 27.0702 10.9375C27.0702 12.8379 26.5146 14.6743 25.4635 16.2482C25.4606 16.2522 25.4582 16.2562 25.4555 16.2602C25.0067 16.9643 17.8457 28.1961 17.4999 28.7382C16.6302 27.3739 10.4301 17.6493 9.54436 16.2602C9.54195 16.2562 9.53928 16.2522 9.53661 16.2482ZM11.9831 26.3867L9.65037 29.3261H5.51677L7.84979 26.3867H11.9831Z" fill="#FFF8F0"/>
<path d="M17.4999 17.7734C21.2528 17.7734 24.3359 14.7344 24.3359 10.9375C24.3359 7.16812 21.2693 4.10156 17.4999 4.10156C13.7306 4.10156 10.664 7.16812 10.664 10.9375C10.664 14.7354 13.7482 17.7734 17.4999 17.7734ZM17.4999 5.46875C20.5155 5.46875 22.9687 7.92194 22.9687 10.9375C22.9687 13.9811 20.4957 16.4062 17.4999 16.4062C14.5033 16.4062 12.0312 13.9811 12.0312 10.9375C12.0312 7.92194 14.4844 5.46875 17.4999 5.46875Z" fill="#FFF8F0"/>
<path d="M20.3793 20.1063C20.0562 19.9114 19.6359 20.0155 19.441 20.3389L16.9144 24.5307C16.7194 24.8541 16.8236 25.2741 17.1469 25.469C17.4716 25.6648 17.8911 25.5585 18.0853 25.2365L20.6119 21.0446C20.8068 20.7213 20.7027 20.3012 20.3793 20.1063Z" fill="#FFF8F0"/>
</svg>
