<svg width="39" height="35" viewBox="0 0 39 35" fill="none" xmlns="http://www.w3.org/2000/svg">
<path d="M37.2219 14.3661H36.5323C35.9064 10.8847 34.2409 7.67971 31.6866 5.1257C28.3814 1.82025 23.9865 0 19.3123 0C14.638 0 10.2432 1.82025 6.938 5.1257C4.36542 7.69828 2.69369 10.9309 2.07839 14.4418H1.40269C0.629147 14.4418 0 15.0709 0 15.8445V20.9419C0 21.7151 0.629147 22.3446 1.40269 22.3446H2.49684C3.43128 25.5896 5.29456 28.5291 7.91428 30.7796C8.1515 30.9832 8.50895 30.9564 8.71287 30.7192C8.91679 30.4816 8.88968 30.1242 8.65246 29.9203C7.97469 29.3383 7.35144 28.7065 6.78535 28.0334C7.65113 27.6686 8.53577 27.3677 9.42689 27.1211C9.85005 27.8678 10.3248 28.5883 10.8514 29.2764C12.0051 30.7843 13.3079 32.1109 14.6964 33.2045C13.5427 32.8665 12.427 32.4021 11.3747 31.8171C11.1013 31.6654 10.7565 31.7638 10.6047 32.0373C10.4527 32.3107 10.5511 32.6555 10.8246 32.8076C13.4063 34.2418 16.3413 35 19.3123 35C23.9865 35 28.3811 33.1797 31.6866 29.8743C33.8098 27.7514 35.3183 25.1779 36.1269 22.3705H37.2219C37.9954 22.3705 38.6246 21.7414 38.6246 20.9678V15.7687C38.6246 14.9955 37.9954 14.3661 37.2219 14.3661ZM35.3793 14.3661H31.4394C31.3922 14.0726 31.34 13.779 31.2793 13.4858C30.9428 11.8613 30.4168 10.31 29.7099 8.84577C29.8142 8.81719 29.9191 8.78919 30.0228 8.75972C30.7439 8.55345 31.6618 8.27291 32.5636 7.88717C33.9719 9.82058 34.9275 12.0242 35.3793 14.3661ZM30.3039 14.4418H24.4516C24.4321 14.1577 24.4109 13.8736 24.3858 13.5902C24.2736 12.323 24.108 11.0963 23.8946 9.92313C25.518 9.75457 27.086 9.49083 28.5904 9.13309C29.3079 10.5738 29.8369 12.1067 30.1702 13.7157C30.2203 13.9573 30.2636 14.1996 30.3039 14.4418ZM30.8856 5.92635C31.2192 6.25993 31.536 6.60589 31.8369 6.96216C31.0825 7.2651 30.3234 7.49554 29.7113 7.67058C29.5339 7.72126 29.3554 7.76989 29.1762 7.81763C28.8182 7.17581 28.4248 6.55197 27.9939 5.94846C26.865 4.36778 25.5263 2.98395 23.9977 1.81023C26.573 2.57582 28.9328 3.9735 30.8856 5.92635ZM21.0589 1.22529C23.4641 2.57729 25.4874 4.38723 27.0722 6.60678C27.4175 7.09094 27.7373 7.58925 28.0331 8.09964C26.6343 8.41878 25.1788 8.65541 23.6733 8.80776C23.0176 5.75514 22.0246 3.12569 20.7807 1.19847C20.8735 1.20643 20.9663 1.21527 21.0589 1.22529ZM19.3123 1.13276C19.3261 1.13276 19.3397 1.13305 19.3536 1.13305C20.7297 2.94918 21.8301 5.66202 22.5388 8.90618C21.3288 8.99341 20.0894 9.02906 18.8225 9.0105C17.9627 8.99812 17.0424 8.97131 16.0843 8.91296C16.7931 5.66586 17.894 2.95036 19.271 1.13305C19.2849 1.13305 19.2984 1.13276 19.3123 1.13276ZM17.8439 1.19847C16.5968 3.13011 15.6022 5.76752 14.9466 8.82897C13.5247 8.70521 12.0401 8.5004 10.5549 8.16211C10.8608 7.62962 11.1926 7.11039 11.5524 6.60648C13.1372 4.38723 15.1605 2.57729 17.5657 1.22499C17.6582 1.21527 17.7511 1.20643 17.8439 1.19847ZM14.7256 9.947C14.5143 11.1128 14.3501 12.3316 14.2388 13.5902C14.2137 13.8736 14.1925 14.1577 14.1733 14.4418H8.32006C8.36014 14.1996 8.40434 13.9573 8.45443 13.7157C8.78271 12.1303 9.30194 10.6192 10.0033 9.19674C11.6022 9.58041 13.1997 9.80938 14.7256 9.947ZM7.73895 5.92635C9.6918 3.9735 12.0516 2.57582 14.6268 1.81023C13.098 2.98395 11.7593 4.36778 10.6307 5.94846C10.1869 6.56994 9.78286 7.21353 9.41657 7.87597C8.52869 7.62991 7.647 7.32963 6.78447 6.96599C7.08622 6.60854 7.40419 6.26141 7.73895 5.92635ZM6.06044 7.88835C6.98751 8.29531 7.93461 8.62889 8.88732 8.90265C8.19423 10.3504 7.67736 11.8822 7.34525 13.4858C7.27954 13.8041 7.22266 14.1229 7.17286 14.4418H3.2306C3.67616 12.072 4.63741 9.84209 6.06044 7.88835ZM1.40269 21.2118C1.25387 21.2118 1.13276 21.0907 1.13276 20.9416V15.8442C1.13276 15.6954 1.25387 15.5743 1.40269 15.5743H17.7517C18.0646 15.5743 18.318 15.3208 18.318 15.0079C18.318 14.6952 18.0646 14.4415 17.7517 14.4415H15.3082C15.3258 14.191 15.345 13.9402 15.3671 13.6901C15.4794 12.4226 15.6456 11.1994 15.8601 10.0339C16.8932 10.1002 17.8834 10.1297 18.8063 10.143C19.0297 10.1462 19.2525 10.148 19.4747 10.148C20.5921 10.148 21.6886 10.1061 22.763 10.0248C22.9781 11.1929 23.1449 12.4194 23.2575 13.6901C23.2796 13.9402 23.2991 14.191 23.3167 14.4415H21.2878C20.9752 14.4415 20.7215 14.6952 20.7215 15.0079C20.7215 15.3208 20.9752 15.5743 21.2878 15.5743H30.0729V21.2115H1.40269V21.2118ZM29.9371 22.3443C29.6109 23.5619 29.1594 24.7424 28.5868 25.8657C27.0851 25.5089 25.5207 25.2445 23.9002 25.076C24.0629 24.1905 24.1964 23.2775 24.2995 22.3446H29.9371V22.3443ZM23.1611 22.3443C23.0589 23.2439 22.9275 24.1233 22.768 24.9755C21.4785 24.8777 20.1572 24.837 18.8063 24.8567C17.8816 24.87 16.8897 24.8995 15.8548 24.9661C15.6962 24.1168 15.5654 23.2407 15.4635 22.3443H23.1611ZM6.06397 27.1102C5.01196 25.6603 4.20688 24.0502 3.67852 22.3443H7.51882C7.84415 23.6397 8.3009 24.8977 8.88703 26.0974C7.9355 26.3708 6.98957 26.7038 6.06397 27.1102ZM8.68871 22.3443H14.3242C14.4265 23.2696 14.5591 24.1751 14.72 25.0536C13.1965 25.1909 11.6016 25.4199 10.0056 25.8024C9.4484 24.6982 9.00873 23.5389 8.68871 22.3443ZM17.5601 33.7712C15.4411 32.5774 13.4334 30.7869 11.751 28.588C11.3202 28.0255 10.9274 27.439 10.5703 26.8341C12.0493 26.4981 13.5274 26.2945 14.9433 26.171C15.1673 27.1998 15.4328 28.1846 15.7387 29.1102C16.1901 30.4743 16.8988 32.2939 17.8519 33.8006C17.7546 33.7921 17.6574 33.7818 17.5601 33.7712ZM19.3123 33.8672C19.2984 33.8672 19.2849 33.8667 19.271 33.8667C18.3793 32.6853 17.5312 30.9219 16.8143 28.7545C16.5358 27.9126 16.2927 27.0191 16.0846 26.0867C17.0427 26.0287 17.9627 26.0016 18.8225 25.9892C20.0894 25.9712 21.3285 26.0069 22.5385 26.0941C22.3307 27.0238 22.0879 27.915 21.8103 28.7545C21.0937 30.9219 20.2453 32.6853 19.3536 33.8667C19.3397 33.8669 19.3261 33.8672 19.3123 33.8672ZM20.7716 33.8024C21.7252 32.2954 22.4345 30.4749 22.8856 29.1102C23.1897 28.1911 23.4535 27.2139 23.6762 26.1928C25.1753 26.3446 26.6242 26.5795 28.0172 26.8965C27.6701 27.4794 27.2893 28.0449 26.8735 28.588C25.1894 30.789 23.1797 32.581 21.0586 33.7747C20.9631 33.7847 20.8673 33.7939 20.7716 33.8024ZM30.8856 29.0734C28.9125 31.0465 26.5238 32.4528 23.9176 33.2128C25.31 32.1177 26.6166 30.7881 27.7732 29.2764C28.2863 28.6063 28.7495 27.9049 29.1641 27.1788C29.3474 27.2278 29.5301 27.2776 29.7113 27.3291C30.3228 27.5042 31.0813 27.7346 31.8354 28.0372C31.5345 28.3935 31.2192 28.7401 30.8856 29.0734ZM32.5618 27.1119C31.6607 26.7268 30.7433 26.4463 30.0228 26.2403C29.9191 26.2105 29.8142 26.1828 29.7099 26.1542C30.3054 24.9457 30.769 23.6768 31.099 22.3705H34.9428C34.4171 24.0658 33.6162 25.6645 32.5618 27.1119ZM37.4918 20.9419C37.4918 21.0907 37.3707 21.2118 37.2219 21.2118H31.2054V15.5743H37.2219C37.3707 15.5743 37.4918 15.6957 37.4918 15.8445V20.9419Z" fill="#FFF8F0"/>
<path d="M4.28619 19.4884C4.28619 19.5721 4.16036 19.6599 4.0139 19.6599C3.85507 19.6599 3.74603 19.5721 3.74603 19.4884V16.6804C3.74603 16.5799 3.85507 16.5127 4.0139 16.5127C4.16036 16.5127 4.28619 16.5799 4.28619 16.6804V17.9649C4.36133 17.8019 4.54963 17.6469 4.81337 17.6469C5.19823 17.6469 5.53299 18.0321 5.53299 18.4965V19.4881C5.53299 19.6013 5.39507 19.6599 5.26099 19.6599C5.13546 19.6599 4.99313 19.6013 4.99313 19.4881V18.4965C4.99313 18.3082 4.82575 18.1199 4.6292 18.1199C4.45769 18.1199 4.28589 18.2619 4.28589 18.4965V19.4884H4.28619Z" fill="#FFF8F0"/>
<path d="M6.72169 18.9815C6.72169 19.1448 6.78033 19.2034 6.95626 19.2034H7.11951C7.27422 19.2034 7.34966 19.3166 7.34966 19.4294C7.34966 19.5467 7.27422 19.6596 7.11951 19.6596H6.95626C6.45412 19.6596 6.18213 19.4545 6.18213 18.9815V16.952C6.18213 16.8516 6.32417 16.7847 6.45 16.7847C6.58791 16.7847 6.72199 16.8516 6.72199 16.952V17.6717H7.21587C7.30369 17.6717 7.35379 17.7721 7.35379 17.8685C7.35379 17.9687 7.30369 18.0651 7.21587 18.0651H6.72199V18.9815H6.72169Z" fill="#FFF8F0"/>
<path d="M8.42529 18.9815C8.42529 19.1448 8.48364 19.2034 8.65957 19.2034H8.82282C8.97753 19.2034 9.05297 19.3166 9.05297 19.4294C9.05297 19.5467 8.97753 19.6596 8.82282 19.6596H8.65957C8.15743 19.6596 7.88544 19.4545 7.88544 18.9815V16.952C7.88544 16.8516 8.02777 16.7847 8.1533 16.7847C8.29151 16.7847 8.42529 16.8516 8.42529 16.952V17.6717H8.91918C9.007 17.6717 9.05709 17.7721 9.05709 17.8685C9.05709 17.9687 9.007 18.0651 8.91918 18.0651H8.42529V18.9815Z" fill="#FFF8F0"/>
<path d="M10.1035 17.8396V17.9652C10.1996 17.8022 10.4005 17.6472 10.6684 17.6472C11.0868 17.6472 11.4175 18.0324 11.4175 18.4968V18.8398C11.4175 19.2877 11.0745 19.6979 10.6852 19.6979C10.4341 19.6979 10.2164 19.5388 10.1371 19.3673V20.4134C10.1371 20.5012 10.0116 20.5849 9.86067 20.5849C9.70597 20.5849 9.59723 20.5012 9.59723 20.4134V17.8396C9.59723 17.7392 9.71009 17.6723 9.85242 17.6723C9.99888 17.6723 10.1035 17.7392 10.1035 17.8396ZM10.8776 18.4968C10.8776 18.3085 10.7061 18.1202 10.4969 18.1202C10.3213 18.1202 10.1371 18.2622 10.1371 18.4968V18.9152C10.1371 19.003 10.2918 19.2249 10.5051 19.2249C10.702 19.2249 10.8776 19.0325 10.8776 18.8398V18.4968Z" fill="#FFF8F0"/>
<path d="M12.9537 19.1077C12.9537 18.7396 11.9618 18.9698 11.9618 18.2708C11.9618 17.9737 12.1501 17.6472 12.7109 17.6472C13.0501 17.6472 13.3763 17.7645 13.3763 17.9192C13.3763 17.9946 13.3052 18.1788 13.1797 18.1788C13.0792 18.1788 12.9496 18.0574 12.7194 18.0574C12.5102 18.0574 12.4265 18.162 12.4265 18.2457C12.4265 18.5513 13.4308 18.3421 13.4308 19.0867C13.4308 19.4595 13.1547 19.6979 12.6608 19.6979C12.2341 19.6979 11.9034 19.522 11.9034 19.3378C11.9034 19.25 11.9786 19.0994 12.0832 19.0994C12.2046 19.0994 12.2968 19.2877 12.6484 19.2877C12.895 19.2877 12.9537 19.1914 12.9537 19.1077Z" fill="#FFF8F0"/>
<path d="M14.5399 18.1787C14.5399 18.3293 14.4102 18.4631 14.2596 18.4631C14.0964 18.4631 13.975 18.3293 13.975 18.1787C13.975 18.0237 14.0964 17.894 14.2596 17.894C14.4102 17.894 14.5399 18.0237 14.5399 18.1787ZM14.5399 19.4005C14.5399 19.5513 14.4102 19.6851 14.2596 19.6851C14.0964 19.6851 13.975 19.5513 13.975 19.4005C13.975 19.2458 14.0964 19.1161 14.2596 19.1161C14.4102 19.1161 14.5399 19.2458 14.5399 19.4005Z" fill="#FFF8F0"/>
<path d="M16.9295 16.6217C16.9295 16.6467 16.9253 16.6717 16.9127 16.6968L15.4104 19.7353C15.3809 19.7936 15.314 19.8272 15.2471 19.8272C15.1257 19.8272 15.0461 19.7311 15.0461 19.643C15.0461 19.618 15.0547 19.5929 15.0671 19.572L16.5694 16.5212C16.5988 16.4625 16.6575 16.4333 16.7202 16.4333C16.8207 16.4333 16.9295 16.5085 16.9295 16.6217Z" fill="#FFF8F0"/>
<path d="M18.1936 16.6217C18.1936 16.6467 18.1892 16.6717 18.1768 16.6968L16.6742 19.7353C16.6451 19.7936 16.5782 19.8272 16.5113 19.8272C16.3899 19.8272 16.3103 19.7311 16.3103 19.643C16.3103 19.618 16.3186 19.5929 16.3312 19.572L17.8335 16.5212C17.863 16.4625 17.9213 16.4333 17.9844 16.4333C18.0846 16.4333 18.1936 16.5085 18.1936 16.6217Z" fill="#FFF8F0"/>
<path d="M20.6127 19.6098C20.5833 19.6811 20.4913 19.7062 20.3994 19.7062C20.2948 19.7062 20.2025 19.6726 20.1775 19.6098L19.8551 18.6975L19.5371 19.6057C19.5121 19.6726 19.4116 19.7062 19.307 19.7062C19.2192 19.7062 19.1269 19.6811 19.0978 19.6057L18.4533 17.9528C18.4365 17.9192 18.4324 17.8942 18.4324 17.8733C18.4324 17.7436 18.6416 17.6514 18.7839 17.6514C18.8549 17.6514 18.9177 17.6805 18.9386 17.7392L19.3571 18.9276L19.6709 17.8939C19.7004 17.7978 19.7714 17.7852 19.8551 17.7852C19.9347 17.7852 20.0101 17.7978 20.0393 17.8939L20.349 18.9318L20.7716 17.7392C20.7925 17.6847 20.8511 17.6514 20.9266 17.6514C21.0603 17.6514 21.274 17.7433 21.274 17.8774C21.274 17.9024 21.2699 17.9316 21.2572 17.9528L20.6127 19.6098Z" fill="#FFF8F0"/>
<path d="M23.7641 19.6098C23.7349 19.6811 23.643 19.7062 23.5507 19.7062C23.4461 19.7062 23.3542 19.6726 23.3288 19.6098L23.0068 18.6975L22.6885 19.6057C22.6635 19.6726 22.5633 19.7062 22.4584 19.7062C22.3705 19.7062 22.2786 19.6811 22.2491 19.6057L21.6047 17.9528C21.5879 17.9192 21.5837 17.8942 21.5837 17.8733C21.5837 17.7436 21.793 17.6514 21.9353 17.6514C22.0063 17.6514 22.0691 17.6805 22.0903 17.7392L22.5087 18.9276L22.8226 17.8939C22.8518 17.7978 22.9231 17.7852 23.0068 17.7852C23.0863 17.7852 23.1615 17.7978 23.1906 17.8939L23.5004 18.9318L23.9232 17.7392C23.9441 17.6847 24.0028 17.6514 24.0779 17.6514C24.212 17.6514 24.4254 17.7433 24.4254 17.8774C24.4254 17.9024 24.4212 17.9316 24.4086 17.9528L23.7641 19.6098Z" fill="#FFF8F0"/>
<path d="M26.9157 19.6098C26.8865 19.6811 26.7946 19.7062 26.7024 19.7062C26.5977 19.7062 26.5058 19.6726 26.4805 19.6098L26.1584 18.6975L25.8401 19.6057C25.8151 19.6726 25.7146 19.7062 25.61 19.7062C25.5222 19.7062 25.4302 19.6811 25.4007 19.6057L24.7563 17.9528C24.7395 17.9192 24.7354 17.8942 24.7354 17.8733C24.7354 17.7436 24.9446 17.6514 25.0869 17.6514C25.1579 17.6514 25.2207 17.6805 25.2419 17.7392L25.6604 18.9276L25.9742 17.8939C26.0034 17.7978 26.0744 17.7852 26.1581 17.7852C26.2376 17.7852 26.3131 17.7978 26.3423 17.8939L26.652 18.9318L27.0748 17.7392C27.0955 17.6847 27.1544 17.6514 27.2295 17.6514C27.3633 17.6514 27.577 17.7433 27.577 17.8774C27.577 17.9024 27.5728 17.9316 27.5602 17.9528L26.9157 19.6098Z" fill="#FFF8F0"/>
<path d="M35.9948 17.1853L35.384 17.0966L35.1108 16.5429C34.9664 16.2506 34.6747 16.0693 34.3487 16.0693C34.0228 16.0693 33.7308 16.2509 33.5867 16.5429L33.3135 17.0966L32.7026 17.1853C32.38 17.2322 32.1174 17.4538 32.0166 17.7635C31.9158 18.0735 31.9984 18.4073 32.2317 18.6348L32.6738 19.0657L32.5694 19.6742C32.514 19.9951 32.6437 20.3136 32.9074 20.5052C33.1709 20.6967 33.5136 20.7218 33.8024 20.57L34.3487 20.2827L34.8951 20.57C35.0206 20.6357 35.1562 20.6684 35.2914 20.6684C35.4668 20.6684 35.6412 20.6133 35.79 20.5052C36.0535 20.3136 36.1831 19.9951 36.128 19.6742L36.0237 19.0657L36.4657 18.6348C36.6991 18.4073 36.7813 18.0735 36.6809 17.7635C36.5801 17.4538 36.3172 17.2322 35.9948 17.1853ZM35.1264 18.3584C34.9263 18.5538 34.835 18.8349 34.8821 19.1105L34.9148 19.3005L34.7442 19.2109C34.4967 19.0807 34.2011 19.0807 33.9533 19.2109L33.7827 19.3005L33.8151 19.1105C33.8625 18.8349 33.7712 18.5538 33.5708 18.3584L33.4329 18.2238L33.6235 18.1961C33.9002 18.156 34.1395 17.9821 34.2636 17.7313L34.3487 17.5584L34.4342 17.7313C34.558 17.9821 34.7972 18.156 35.074 18.1961L35.2646 18.2238L35.1264 18.3584Z" fill="#FFF8F0"/>
</svg>
